<svg id="Calque_1" data-name="Calque 1" xmlns="http://www.w3.org/2000/svg" viewBox="0 0 595.28 520.33"><defs><style>.cls-1{fill:#60a344;}.cls-2{fill:#5d9340;}.cls-3{fill:#8bbf42;}.cls-4{fill:#79a741;}.cls-5{fill:#547838;}.cls-6{fill:#2e2e2e;}.cls-7{fill:#f59d56;}.cls-8{fill:#f8b67b;}.cls-9{fill:#60c4e3;}.cls-10{fill:#db7126;}.cls-11{fill:#ef7b41;}.cls-12{fill:#ba5728;}.cls-13{fill:#deefed;}.cls-14{fill:#3f4040;}</style></defs><path class="cls-1" d="M388.35,530l-33-115.68L155.93,471.26,189,587ZM180.92,501.89a27.45,27.45,0,0,0,14.55-26.18L324.08,439a27.16,27.16,0,0,0,3.06,4.59,27.5,27.5,0,0,0,23.13,10l13.09,45.83a27.48,27.48,0,0,0-14.56,26.19L220.19,562.28a25,25,0,0,0-3-4.58,27.46,27.46,0,0,0-23.14-10Z" transform="translate(0 -164.71)"/><path class="cls-2" d="M189,587l-33-115.69,199.38-56.93-24.24,25.16-3.93,4.08a27.16,27.16,0,0,1-3.06-4.59L195.47,475.71a27.45,27.45,0,0,1-14.55,26.18L194,547.73a27.46,27.46,0,0,1,23.14,10l-3.94,4.09Z" transform="translate(0 -164.71)"/><path class="cls-3" d="M213.21,561.79a21.14,21.14,0,0,1,3.67,7.29l138.32-39.5a21.8,21.8,0,0,1,15-26.91L354.3,447.14a21.81,21.81,0,0,1-23.23-7.65,21.56,21.56,0,0,1-3.68-7.3l-138.32,39.5a21.76,21.76,0,0,1-14.94,26.89L190,554.12A21.77,21.77,0,0,1,213.21,561.79Zm-32.29-59.9a27.45,27.45,0,0,0,14.55-26.18L324.08,439a27.16,27.16,0,0,0,3.06,4.59,27.5,27.5,0,0,0,23.13,10l13.09,45.83a27.48,27.48,0,0,0-14.56,26.19L220.19,562.28a25,25,0,0,0-3-4.58,27.46,27.46,0,0,0-23.14-10Z" transform="translate(0 -164.71)"/><path class="cls-4" d="M194,547.73l-13.09-45.84a27.45,27.45,0,0,0,14.55-26.18L324.08,439a27.16,27.16,0,0,0,3.06,4.59l-110,114.13A27.46,27.46,0,0,0,194,547.73Z" transform="translate(0 -164.71)"/><path class="cls-3" d="M217.15,557.7l110-114.13a27.5,27.5,0,0,0,23.13,10l13.09,45.83a27.48,27.48,0,0,0-14.56,26.19L220.19,562.28A25,25,0,0,0,217.15,557.7Z" transform="translate(0 -164.71)"/><path class="cls-5" d="M241,509.52c-5.29-18.51,4-37.87,21.42-42.84,17.78-5.08,35.62,6.95,40.8,25.07,5.35,18.76-4.23,37.93-21.41,42.84S246.38,528.27,241,509.52Z" transform="translate(0 -164.71)"/><path class="cls-6" d="M260.92,503.93c2.08,1.11,5.15,1.5,9.23,1.18l4-.33a10.48,10.48,0,0,1,4.13.27,2.68,2.68,0,0,1,1.66,1.88,3.07,3.07,0,0,1-.75,3.17,10.24,10.24,0,0,1-4.49,2.24,22.66,22.66,0,0,1-5.31.81,33.2,33.2,0,0,1-6.12-.33l2.1,7.33a57.31,57.31,0,0,0,6.61-.49c.63-.09,1.24-.21,1.85-.32l1.15,4,6.71-1.91-1.13-4a13.41,13.41,0,0,0,6.23-4.63q2.54-3.75,1.06-8.92a9.26,9.26,0,0,0-4.27-5.87q-3.11-1.77-8.62-1.39l-3.68.22a11.22,11.22,0,0,1-4.66-.37,3.51,3.51,0,0,1-1-5.44,8.84,8.84,0,0,1,4.21-2.25,22.09,22.09,0,0,1,6.23-.82,34.81,34.81,0,0,1,7.18.83l-2.15-7.54a43,43,0,0,0-7.18,0c-1.19.11-2.36.28-3.52.5l-1.12-4-6.71,1.91,1.15,4a13.77,13.77,0,0,0-6.18,4.57c-1.74,2.51-2,5.67-1,9.5A9.34,9.34,0,0,0,260.92,503.93Z" transform="translate(0 -164.71)"/><path class="cls-7" d="M107.77,620.8l14.63,6.79,8.2-21s32.39-25,39.06-57.84l40.44-18.79-26.33-38.25-51.88,2.74Z" transform="translate(0 -164.71)"/><path class="cls-7" d="M100.36,472.72c71.67-61.47,50-60.4,121.65-7.37l-46.14,17.43Z" transform="translate(0 -164.71)"/><path class="cls-1" d="M368.64,455.88l-72.19-96.24L130.58,484.08l72.19,96.24ZM164.87,503.75a27.43,27.43,0,0,0,4.22-29.65l107-80.27a27.22,27.22,0,0,0,4.49,3.2,27.5,27.5,0,0,0,25.17,1l28.61,38.13a27.45,27.45,0,0,0-4.24,29.66l-107,80.26a25.21,25.21,0,0,0-4.48-3.19,27.44,27.44,0,0,0-25.17-1Z" transform="translate(0 -164.71)"/><path class="cls-2" d="M202.77,580.32l-72.19-96.24L296.45,359.64l-13.66,32.17L280.58,397a27.22,27.22,0,0,1-4.49-3.2l-107,80.27a27.43,27.43,0,0,1-4.22,29.65l28.61,38.14a27.44,27.44,0,0,1,25.17,1l-2.22,5.22Z" transform="translate(0 -164.71)"/><path class="cls-3" d="M216.43,548.15a21.57,21.57,0,0,1,6,5.5l115.06-86.32a21.81,21.81,0,0,1,4.35-30.48l-34.65-46.19a21.77,21.77,0,0,1-30.48-4.35L161.69,472.63a21.78,21.78,0,0,1-4.35,30.46L192,549.29A21.79,21.79,0,0,1,216.43,548.15Zm-51.56-44.4a27.43,27.43,0,0,0,4.22-29.65l107-80.27a27.22,27.22,0,0,0,4.49,3.2,27.5,27.5,0,0,0,25.17,1l28.61,38.13a27.45,27.45,0,0,0-4.24,29.66l-107,80.26a25.21,25.21,0,0,0-4.48-3.19,27.44,27.44,0,0,0-25.17-1Z" transform="translate(0 -164.71)"/><path class="cls-4" d="M193.48,541.89l-28.61-38.14a27.43,27.43,0,0,0,4.22-29.65l107-80.27a27.22,27.22,0,0,0,4.49,3.2l-61.93,145.9A27.44,27.44,0,0,0,193.48,541.89Z" transform="translate(0 -164.71)"/><path class="cls-3" d="M218.65,542.93,280.58,397a27.5,27.5,0,0,0,25.17,1l28.61,38.13a27.45,27.45,0,0,0-4.24,29.66l-107,80.26A25.21,25.21,0,0,0,218.65,542.93Z" transform="translate(0 -164.71)"/><path class="cls-5" d="M223.73,489.4c-11.55-15.4-9.79-36.8,4.69-47.67,14.8-11.1,35.76-6.24,47.07,8.83,11.71,15.61,9.61,36.94-4.68,47.66S235.43,505,223.73,489.4Z" transform="translate(0 -164.71)"/><path class="cls-6" d="M240.32,477.06q3.5.45,9-2.19l3.64-1.74a10.51,10.51,0,0,1,4-1.23,2.65,2.65,0,0,1,2.21,1.16,3.07,3.07,0,0,1,.44,3.23,10.21,10.21,0,0,1-3.39,3.7,23.19,23.19,0,0,1-4.68,2.66,33.77,33.77,0,0,1-5.83,1.87l4.58,6.1a58.61,58.61,0,0,0,6-2.82c.56-.31,1.08-.64,1.62-1l2.52,3.36L266,486l-2.46-3.29a13.38,13.38,0,0,0,4.15-6.56q1.05-4.4-2.18-8.7a9.27,9.27,0,0,0-6.1-4c-2.35-.35-5.2.24-8.54,1.79l-3.36,1.52a11.32,11.32,0,0,1-4.49,1.32,3.52,3.52,0,0,1-2.89-4.72,8.94,8.94,0,0,1,3.12-3.6,22.28,22.28,0,0,1,5.53-3,34.89,34.89,0,0,1,7-1.8l-4.7-6.27a42.21,42.21,0,0,0-6.69,2.6c-1.07.52-2.11,1.1-3.11,1.71l-2.47-3.29L233.22,454l2.51,3.34a13.73,13.73,0,0,0-4.13,6.47q-1.09,4.46,2.49,9.22C235.91,475.4,238,476.76,240.32,477.06Z" transform="translate(0 -164.71)"/><path class="cls-8" d="M107.77,620.8,116,600.44c48.76-38.57,33.26-92.77,33.26-92.77l20.83-6.9,16.92,8.64c17.6,8.56,23.13,1.72,23.13,1.72,6.35-6.77,5.75-14.55,2.16-19a166.2,166.2,0,0,1-14.09-10c-32-25.58-4.69-27.78-97.89-9.35,0,0-37.53,85.38-39.52,86.3L46.15,597.45Z" transform="translate(0 -164.71)"/><rect class="cls-9" x="54.18" y="533.94" width="63.42" height="108.35" transform="translate(-492.96 288.57) rotate(-68.58)"/><rect class="cls-10" x="25.93" y="557.16" width="96.51" height="121.53" transform="translate(-528.15 296.61) rotate(-68.58)"/><path class="cls-11" d="M214.05,505.16a13.83,13.83,0,0,0-1.71-13.05,166.2,166.2,0,0,1-14.09-10,11.61,11.61,0,0,0,3.6,14.25l10.65,7.88A11,11,0,0,0,214.05,505.16Z" transform="translate(0 -164.71)"/><path class="cls-8" d="M455.81,311l1.78,10.24-86,37.65c-35.13-38.42-43.55-65.49-45.93-102.48l86.41-40.48,32.05,29.53Z" transform="translate(0 -164.71)"/><path class="cls-9" d="M296.64,261.93l13,29.7c-22.53,9.87-25.79,24.72-25.79,24.72q-24,10.5-44.17,18.88c-13.35,5.57-25.53,10.49-36.64,14.84C104.7,388.62,90.7,382.58,90.7,382.58c37.9-16.58,58.44-56.08,58.44-56.08Z" transform="translate(0 -164.71)"/><path class="cls-12" d="M494.18,214.09a7.46,7.46,0,0,1-3.84,9.82L320.66,298.2a7.46,7.46,0,0,1-9.82-3.84l-14.2-32.44a7.45,7.45,0,0,1,3.84-9.81l169.68-74.29a7.46,7.46,0,0,1,9.82,3.84Z" transform="translate(0 -164.71)"/><path class="cls-13" d="M252.37,281.31l-12.69,53.92c-13.35,5.57-25.53,10.49-36.64,14.84l12.38-52.58Z" transform="translate(0 -164.71)"/><path class="cls-7" d="M393.35,226.54c6.18,14.12,30.83,3.16,24.71-10.82L398.57,171.2c-6.05-13.81-30.92-3.36-24.72,10.81Z" transform="translate(0 -164.71)"/><path class="cls-7" d="M348.76,259.2c6.18,14.12,30.82,3.15,24.71-10.82L354,203.86c-6.05-13.81-30.92-3.36-24.71,10.82Z" transform="translate(0 -164.71)"/><path class="cls-7" d="M327.72,272.44c5.63,12.85,28.09,2.87,22.52-9.86l-15.73-35.92c-5.5-12.58-28.17-3.06-22.51,9.85Z" transform="translate(0 -164.71)"/><path class="cls-7" d="M371.17,243.14c6.18,14.11,30.83,3.16,24.71-10.82L376.39,187.8c-6.05-13.81-30.92-3.36-24.71,10.82Z" transform="translate(0 -164.71)"/><path class="cls-8" d="M450.92,299.81s6.35-30.81,11-53.16a39.11,39.11,0,0,0-13.06-37.74L425.6,189.33a18.41,18.41,0,0,0-19.27-2.81l-32,14a8.29,8.29,0,0,0-3.58,12.23c13.21,19.54,38.23,3.94,38.23,3.94,8.72,6.83,17.16,13.34,17.16,13.34a72,72,0,0,0-20.67,17.25c-27.55,33.41-19.43,74.9,18.92,64.95C438.21,308.67,450.84,300.21,450.92,299.81Z" transform="translate(0 -164.71)"/><path class="cls-14" d="M371.59,358.87s61.87,212.66,123.22,278.55L595.28,581S483.43,432.19,457.59,321.22Z" transform="translate(0 -164.71)"/></svg>