<svg id="Calque_1" data-name="Calque 1" xmlns="http://www.w3.org/2000/svg" viewBox="0 0 315.6 841.89"><defs><style>.cls-1{fill:#010101;opacity:0.3;}.cls-2{fill:#c7a496;}.cls-3{fill:#a72727;}.cls-4{fill:#f0c7b5;}.cls-5{fill:#f5f5f5;}.cls-6{fill:#248ba6;}.cls-7{fill:#28a5c5;}.cls-8{fill:#d73a3a;}.cls-9{fill:#6e4927;}.cls-10{fill:#67aee1;}.cls-11{fill:#4091cf;}.cls-12{fill:#a8a8a8;}.cls-13{fill:#fff;}.cls-14{fill:#383938;}.cls-15{fill:#262626;}.cls-16{fill:#cdcccc;}.cls-17{fill:#593b20;}</style></defs><path class="cls-1" d="M335.21,824.2c-40.83,23.58-107,23.58-147.88,0s-40.83-61.8,0-85.37,107-23.58,147.88,0S376.05,800.63,335.21,824.2Z" transform="translate(-148.33)"/><polygon class="cls-2" points="155.71 353.88 158.57 376.76 151.42 386.07 131.08 373.49 111.57 363.19 116.68 345.79 130.52 331.63 151.01 343.92 155.71 353.88"/><path class="cls-3" d="M318.61,345.79c11.45.2,49.35,35.27,57,36.89s10.73,43.68,10.73,43.68L340.62,399,316.3,377.91l-10-30.43A66.63,66.63,0,0,1,318.61,345.79Z" transform="translate(-148.33)"/><path class="cls-4" d="M379.65,369.09s31.18,40,31.18,48.54c0,5.73-3.54,13.93-7.3,15.53-6.22,2.66-12.46-1.63-17.15-6.8-4.27-4.73-4.68-21.4-18-52.05C370.25,369,379.65,369.09,379.65,369.09Z" transform="translate(-148.33)"/><path class="cls-5" d="M309.79,741.84c6.92,6.65,32.67,17.06,36.15,22.58s.27,11-3.89,13.3c-10.63,5.83-38.42-12.69-46.39-15.35s-18.8.42-22.38-8c-2.3-5.4.36-10,2.43-19Z" transform="translate(-148.33)"/><path class="cls-4" d="M275.71,735.43a78.74,78.74,0,0,0,2-19.66c2.25-4.07,13.08-7,13.08-7l14.3,9.51s-2.18,17,4.73,23.6c0,0-10.45,7-21.69,5.82S275.71,735.43,275.71,735.43Z" transform="translate(-148.33)"/><path class="cls-6" d="M341.76,527.88c2.54,38.32-12.33,116.44-21.17,131.1-15.53,25.74-15.53,59.26-15.53,59.26s-15.94,7.77-27.38-2.47c-.08-5.71-.82-32.27,2.45-44.54s13.08-25.74,13.08-25.74l-11-95.64S338.81,521.45,341.76,527.88Z" transform="translate(-148.33)"/><path class="cls-5" d="M217.8,776.48c2,8.79,33.52,33.56,30.86,38.88s-23.61,7.88-29.63,2.25-25.4-14.65-27-23.85c-.74-4.15,2.08-12.36,3-18.33Z" transform="translate(-148.33)"/><path class="cls-4" d="M195,775.43a153.5,153.5,0,0,0,2.15-31c1.83-3.67,22.47,1.63,22.47,1.63s-3.88,21.67-1.84,30.46c0,0-8.91,7.33-16.26,6.1S195,775.43,195,775.43Z" transform="translate(-148.33)"/><path class="cls-7" d="M232.72,560.57c-4.65,47.93-13.37,89.75-16.75,99.22,0,0-12.67,15.94-17.18,30.66s-2,49.75-1.62,53.94c2.55,10.62,17,8.79,22.47,1.63,3.28-23.69,18.78-65,27-72.34,18.79-16.75,53.95-113.61,53.95-113.61l-26.16-40.46L245,534.73S236.39,544.27,232.72,560.57Z" transform="translate(-148.33)"/><path class="cls-8" d="M238.28,421.21c0,22.69,19.78,65.59,17.84,78.78s-20.78,19.31-27.59,66.82c6.2-10.72,18.58-23.6,32.74-21.46,12.2,1.85,48,32.31,58,40.57l2.15-19.11,3.68,17.47c3.66-11.52,13.23-45.93,17.35-58.54,5-15.33-6.93-49.66-2.64-82.15.73-5.58,13.82-10.41,13.82-26.07,0-20.84-16.88-23.6-42.43-70-5.42-1.37-9.81,2.33-9.81,2.33s3.27,22.66-1.63,29.62c-17.58-14.1-38.48-21.95-38.48-21.95l-17.11,20.43S238.28,407.64,238.28,421.21Z" transform="translate(-148.33)"/><path class="cls-9" d="M319.06,289.53c9.25,21.79-2.1,59.83,9.25,59.76-10.89,10.8-24.32-.83-24.32-.83l-10.37-27.68,16.75-32.51S318,286.9,319.06,289.53Z" transform="translate(-148.33)"/><path class="cls-4" d="M318.34,296.66c2.46,4.49,1.09,13.7,1.09,13.7s2.9,32.61-2.21,38.12c-1.41,1.53-7.1,7.21-9.6,7.24A65.29,65.29,0,0,1,283,349.81c-8.78-4.32-14-23.75-14-23.75l1.53-23.47,18.08-30.29,24.83,9.84S319.43,292.37,318.34,296.66Z" transform="translate(-148.33)"/><path class="cls-9" d="M318.34,296.66s-.72-4.67-4.44-7.13c-6.41-4.25-9.65,3.4-9.65,3.4s-15.9.77-17.79,17.22c-2.45,21.48-13.89,33.1-14.71,50.67-.16,3.61.25,12.26,8,16.56-15.93,3.67-30.38-12.85-30.38-12.85s-4.6,4.47-8.07,4.47c2.74-8.12-16.77-75,17.87-99.14,13.8-14.69,34.64-6.92,40.57-2.63C326.19,286.38,318.34,296.66,318.34,296.66Z" transform="translate(-148.33)"/><path class="cls-10" d="M443.13,269.18l-.05-.07a4,4,0,0,0-4.69-1h0l0,0c-.14.06-.27.15-.4.22l-3.3,1.85h0a4,4,0,0,1,4.6,1.05l.05.06a3.93,3.93,0,0,1-.46,5.55l-19.59,16.62a5.39,5.39,0,0,1-.63.43h0l3.75-2.09h0a3.65,3.65,0,0,0,.69-.47l19.6-16.62A3.93,3.93,0,0,0,443.13,269.18Z" transform="translate(-148.33)"/><path class="cls-11" d="M438.85,276.86l-19.59,16.62a3.92,3.92,0,0,1-5.54-.46l-.06-.07a3.93,3.93,0,0,1,.46-5.53l19.59-16.62a3.94,3.94,0,0,1,5.55.45l.05.06A3.93,3.93,0,0,1,438.85,276.86Z" transform="translate(-148.33)"/><path class="cls-10" d="M457,330l-25-6a3.86,3.86,0,0,0-2.82.39h0l-.09,0-3.73,2.1h0a3.86,3.86,0,0,1,2.82-.39l25,6a3.94,3.94,0,0,1,2.91,4.74l0,.08a3.88,3.88,0,0,1-1.71,2.39h0l3.32-1.87a3.38,3.38,0,0,0,.62-.34h0a4,4,0,0,0,1.58-2.31l0-.09A3.93,3.93,0,0,0,457,330Z" transform="translate(-148.33)"/><path class="cls-11" d="M453.15,332.13l-25-6a3.93,3.93,0,0,0-4.74,2.91v.06a3.93,3.93,0,0,0,2.9,4.75l25,6A3.91,3.91,0,0,0,456,337l0-.08A3.94,3.94,0,0,0,453.15,332.13Z" transform="translate(-148.33)"/><path class="cls-12" d="M375.44,379l-7.89-34.61-13.94-.43a50,50,0,0,1,1.51,4.8l5.26-.24,7.89,34.61a1.86,1.86,0,0,1-.61,2h0s7.09-4.06,7.24-4.19h0A1.88,1.88,0,0,0,375.44,379Z" transform="translate(-148.33)"/><path class="cls-13" d="M364.9,385.4,358,383.6c-2.59-.66-5-3.09-5.06-5.06-.19-6.26.74-24.05-1.95-29.18l9.43-.88,7.89,34.61C368.7,385,367.2,386,364.9,385.4Z" transform="translate(-148.33)"/><path class="cls-12" d="M351.91,352.36a12.46,12.46,0,0,0-1-3l9.43-.88.62,2.72Z" transform="translate(-148.33)"/><polygon class="cls-8" points="221.62 357.49 214.87 356.87 212.73 347.48 217.16 347.88 221.62 357.49"/><polygon class="cls-3" points="227.31 354.22 221.62 357.49 217.16 347.88 222.87 344.61 227.31 354.22"/><path class="cls-8" d="M331.28,338.88a4.35,4.35,0,1,1-5.29-3.13A4.37,4.37,0,0,1,331.28,338.88Z" transform="translate(-148.33)"/><path class="cls-13" d="M357.56,332a16.34,16.34,0,1,1-19.89-11.77A16.32,16.32,0,0,1,357.56,332Z" transform="translate(-148.33)"/><path class="cls-8" d="M343.85,347.39c-5.18-5.17-7.84-15.12-6-22.2,1-3.51,2.84-5.66,5.14-6.29l-3.59,1c-2.32.63-4.23,2.78-5.18,6.32-1.89,7.08.77,17,6,22.2,2.54,2.53,5.22,3.45,7.51,2.89h0l.07,0,.11,0,3.32-.9C349,350.81,346.35,349.88,343.85,347.39Z" transform="translate(-148.33)"/><path class="cls-13" d="M343.73,318.75c-2.61.37-4.79,2.58-5.83,6.44-1.89,7.08.77,17,6,22.2,2.5,2.49,5.12,3.42,7.38,2.93,0,0,25-6.29,43.9.84,0,0-14.05-54.61-13.88-57.38C355.93,315.13,343.73,318.75,343.73,318.75Z" transform="translate(-148.33)"/><path class="cls-3" d="M406.63,295.34c9.83,9.84,14.89,28.69,11.28,42.13s-14.48,16.35-24.32,6.51-14.88-28.69-11.28-42.12S396.8,285.51,406.63,295.34Z" transform="translate(-148.33)"/><path class="cls-8" d="M392.36,289.83h0l-.14,0A.58.58,0,0,1,392.36,289.83Z" transform="translate(-148.33)"/><path class="cls-8" d="M393.59,344c-9.83-9.82-14.88-28.69-11.28-42.12,1.79-6.67,5.38-10.75,9.74-11.95l-6.8,1.81c-4.41,1.19-8,5.27-9.84,12-3.59,13.43,1.46,32.28,11.3,42.11,4.82,4.84,9.9,6.6,14.25,5.52h0l.13,0,.2-.06,6.3-1.71C403.31,350.49,398.34,348.71,393.59,344Z" transform="translate(-148.33)"/><path class="cls-8" d="M405.57,299.29c8.23,8.24,12.47,24,9.46,35.29-2,7.52-6.75,11.11-12.14,10.2,2.6-1.59,4.7-4.64,5.86-9,3-11.26-1.21-27.07-9.45-35.3a15.69,15.69,0,0,0-8.23-4.74C395.17,293.21,400.53,294.25,405.57,299.29Z" transform="translate(-148.33)"/><path class="cls-12" d="M399.3,300.48c8.24,8.23,12.47,24,9.45,35.3-1.16,4.36-3.26,7.41-5.86,9a15.75,15.75,0,0,1-8.24-4.74c-8.23-8.23-12.47-24-9.46-35.29,1.17-4.37,3.27-7.41,5.88-9A15.69,15.69,0,0,1,399.3,300.48Z" transform="translate(-148.33)"/><path class="cls-13" d="M400.35,319.36a16.33,16.33,0,0,1-7.8,18.29,40.17,40.17,0,0,1-7.86-30.57l.66,0A16.33,16.33,0,0,1,400.35,319.36Z" transform="translate(-148.33)"/><path class="cls-12" d="M398.53,318.08a4,4,0,0,1,.93,3.46c-.25.91-.9,1.23-1.58.86a2,2,0,0,0,.21-.51,4,4,0,0,0-.92-3.45,1.71,1.71,0,0,0-.43-.32C397.14,317.46,397.86,317.42,398.53,318.08Z" transform="translate(-148.33)"/><path class="cls-14" d="M397.17,318.44a4,4,0,0,1,.92,3.45.34.34,0,1,1-.63.18,4,4,0,0,1-.93-3.46,1.85,1.85,0,0,1,.21-.49A1.71,1.71,0,0,1,397.17,318.44Z" transform="translate(-148.33)"/><path class="cls-10" d="M463.82,298.59l0-.07a3.92,3.92,0,0,0-4.73-2.9l-25,6a4.07,4.07,0,0,0-.72.25h0a4.76,4.76,0,0,0-.49.28l-3.5,1.95h0a4.54,4.54,0,0,1,.89-.34l25-6a3.92,3.92,0,0,1,4.74,2.92l0,.06a3.94,3.94,0,0,1-1.77,4.27l3.71-2.08h0A3.93,3.93,0,0,0,463.82,298.59Z" transform="translate(-148.33)"/><path class="cls-11" d="M457.09,305.48l-25,6a3.92,3.92,0,0,1-4.74-2.9l0-.07a3.94,3.94,0,0,1,2.9-4.75l25-6a3.92,3.92,0,0,1,4.74,2.92l0,.06A4,4,0,0,1,457.09,305.48Z" transform="translate(-148.33)"/><path class="cls-15" d="M247.49,264.81,186.7,12l-9.25,2.24,60.78,252.84a2.35,2.35,0,0,0,1.81,1.56,7.44,7.44,0,0,0,6.55-1.58A2.4,2.4,0,0,0,247.49,264.81Z" transform="translate(-148.33)"/><path class="cls-14" d="M185.8,14.18a7.43,7.43,0,0,1-6.54,1.6c-2.06-.62-2.47-2.3-.92-3.8a7.46,7.46,0,0,1,6.54-1.57C187,11,187.35,12.71,185.8,14.18Z" transform="translate(-148.33)"/><polygon class="cls-12" points="37.9 212.84 118.05 136.28 85.22 1.49 5.06 78.03 37.9 212.84"/><polygon class="cls-16" points="37.9 212.84 32.84 211.36 0 76.55 5.06 78.03 37.9 212.84"/><polygon class="cls-16" points="80.16 0 85.22 1.49 5.06 78.03 0 76.55 80.16 0"/><path class="cls-4" d="M243.69,221.88c-4-6.35-18.48-3.16-22.54,2.23-6.61,8.79-2.32,29.84-2.32,29.84-1.34,21.66-15.74,65.19-10.22,86,4,11,6.95,12.51,6.95,12.51l12.26-2.67,3.62-18.18s-1.73-42.51,2.83-67.95c0,0,3-4.23-.3-14.34a35.68,35.68,0,0,0,8.56-4.38C247.53,242.09,247.72,228.23,243.69,221.88Z" transform="translate(-148.33)"/><path class="cls-3" d="M255.51,425.81c-5.52,4-22.07,0-31.58-18.09S208.61,340,208.61,340c13.79,12.58,22.83-8.34,22.83-8.34s21.31,45.93,26.82,53.5S261,421.82,255.51,425.81Z" transform="translate(-148.33)"/><path class="cls-17" d="M263.17,272.86c4.29-4,32.49,15,32.49,15S269.09,276,263.17,272.86Z" transform="translate(-148.33)"/><path class="cls-3" d="M274.41,443.38c7.76,26.16,32.49,14.31,32.49,14.31S284.43,462.79,274.41,443.38Z" transform="translate(-148.33)"/><path class="cls-4" d="M358.08,353.78c2.3-5.3,14.58-6,14.58-6s4.74.63,7,4.59,0,21.07-2.09,23.83-7.29,2.86-10.47,1.72S355.78,359.07,358.08,353.78Z" transform="translate(-148.33)"/><path class="cls-4" d="M357.54,357.59c1,4.35,0,8.26-2.19,8.74s-4.71-2.65-5.67-7,0-8.26,2.18-8.74S356.58,353.24,357.54,357.59Z" transform="translate(-148.33)"/></svg>